/* XPM */
static char * LED_red_xpm[] = {
"16 16 141 2",
"  	c None",
". 	c #7B0000",
"+ 	c #7E0000",
"@ 	c #800202",
"# 	c #810404",
"$ 	c #800101",
"% 	c #7F0101",
"& 	c #7F0000",
"* 	c #820303",
"= 	c #8F1313",
"- 	c #A13030",
"; 	c #A63737",
"> 	c #992424",
", 	c #901717",
"' 	c #810202",
") 	c #850606",
"! 	c #9F2020",
"~ 	c #C25757",
"{ 	c #DB8E8E",
"] 	c #E19E9E",
"^ 	c #DB8F8F",
"/ 	c #C76969",
"( 	c #A93A3A",
"_ 	c #8C1313",
": 	c #7D0000",
"< 	c #9E1919",
"[ 	c #BC3737",
"} 	c #DA7474",
"| 	c #EBA9A9",
"1 	c #F4C3C3",
"2 	c #F6D3D3",
"3 	c #F2CECE",
"4 	c #E09D9D",
"5 	c #BF6161",
"6 	c #8E1717",
"7 	c #8D0909",
"8 	c #B01E1E",
"9 	c #C53030",
"0 	c #D65E5E",
"a 	c #E89494",
"b 	c #F6B7B7",
"c 	c #FBC9C9",
"d 	c #FBDADA",
"e 	c #F5D8D8",
"f 	c #A84141",
"g 	c #820606",
"h 	c #980D0D",
"i 	c #BA2121",
"j 	c #C22222",
"k 	c #CB3838",
"l 	c #E27B7B",
"m 	c #F3A5A5",
"n 	c #FBB7B7",
"o 	c #FCBEBE",
"p 	c #FAD5D5",
"q 	c #F0BABA",
"r 	c #CE7D7D",
"s 	c #891010",
"t 	c #9A0E0E",
"u 	c #B81F1F",
"v 	c #C11E1E",
"w 	c #C62525",
"x 	c #D44949",
"y 	c #E47676",
"z 	c #EF9292",
"A 	c #F6A0A0",
"B 	c #F3B1B1",
"C 	c #F0B3B3",
"D 	c #D57E7E",
"E 	c #931E1E",
"F 	c #930D0D",
"G 	c #AA1919",
"H 	c #BF2020",
"I 	c #C72525",
"J 	c #CB2B2B",
"K 	c #D03939",
"L 	c #DB5353",
"M 	c #E16262",
"N 	c #E27272",
"O 	c #E07676",
"P 	c #C54C4C",
"Q 	c #8C0E0E",
"R 	c #780000",
"S 	c #7F0202",
"T 	c #8D0A0A",
"U 	c #9C1111",
"V 	c #B81C1C",
"W 	c #C72626",
"X 	c #CE3030",
"Y 	c #CE2E2E",
"Z 	c #D23535",
"` 	c #D33939",
" .	c #D03434",
"..	c #CA3030",
"+.	c #B02020",
"@.	c #880303",
"#.	c #7A0000",
"$.	c #880606",
"%.	c #900A0A",
"&.	c #A61414",
"*.	c #B61A1A",
"=.	c #C92B2B",
"-.	c #D23838",
";.	c #D13838",
">.	c #CF3232",
",.	c #CC2D2D",
"'.	c #C12424",
").	c #9D0D0D",
"!.	c #820000",
"~.	c #760000",
"{.	c #870404",
"].	c #951010",
"^.	c #A41919",
"/.	c #B22222",
"(.	c #BB2C2C",
"_.	c #BC2D2D",
":.	c #C13030",
"<.	c #C32D2D",
"[.	c #A71B1B",
"}.	c #890404",
"|.	c #820505",
"1.	c #8E1414",
"2.	c #941C1C",
"3.	c #A22525",
"4.	c #A92727",
"5.	c #A52525",
"6.	c #961A1A",
"7.	c #8B1010",
"8.	c #7D0303",
"9.	c #750000",
"0.	c #8A0B0B",
"a.	c #911010",
"b.	c #931111",
"c.	c #921313",
"d.	c #7D0707",
"e.	c #6E0000",
"f.	c #770000",
"g.	c #790000",
"h.	c #780101",
"i.	c #710000",
"j.	c #6F0000",
"            . . . .             ",
"        + + @ # $ % + +         ",
"      & * = - ; > , ' & &       ",
"    + ) ! ~ { ] ^ / ( _ $ :     ",
"  : ' < [ } | 1 2 3 4 5 6 & :   ",
"  : 7 8 9 0 a b c d e ] f g +   ",
". % h i j k l m n o p q r s + . ",
". ' t u v w x y z A B C D E + . ",
". * F G H I J K L M N O P Q + . ",
"R S T U V W X Y Z `  ...+.@.+ . ",
"  #.$.%.&.*.=.-.;.>.,.'.).!..   ",
"  ~.% {.].^./.(._.:.<.[.}.+ #.  ",
"    ~.. |.1.2.3.4.5.6.7.8.~.    ",
"      9.R 8.0.a.b.c.s d.e.      ",
"        ~.f.g.g.#.h.i.j.        ",
"            . . . .             "};
