/* XPM */
static char * LED_yellow_on_xpm[] = {
"16 16 129 2",
"  	c None",
". 	c #B6B320",
"+ 	c #B9B720",
"@ 	c #BAB820",
"# 	c #BAB923",
"$ 	c #BBBA23",
"% 	c #CBC930",
"& 	c #D9D84D",
"* 	c #DFDD58",
"= 	c #D2D141",
"- 	c #CBC933",
"; 	c #BAB921",
"> 	c #C1BF25",
", 	c #D9D73B",
"' 	c #EFEF84",
") 	c #FAFAC8",
"! 	c #FBFBD7",
"~ 	c #FAFAC9",
"{ 	c #F3F29F",
"] 	c #DFDF5B",
"^ 	c #C8C62F",
"/ 	c #B6B420",
"( 	c #D8D735",
"_ 	c #EDEC57",
": 	c #F9F9AB",
"< 	c #FDFDDF",
"[ 	c #FFFFF1",
"} 	c #FFFFF8",
"| 	c #FEFEF5",
"1 	c #EFEE91",
"2 	c #CAC834",
"3 	c #C9C726",
"4 	c #E5E439",
"5 	c #F2F14E",
"6 	c #F9F890",
"7 	c #FDFDCE",
"8 	c #FFFFEA",
"9 	c #FFFFF3",
"0 	c #FFFFF9",
"a 	c #DFDE64",
"b 	c #D2D029",
"c 	c #EBEA3D",
"d 	c #EFEE3E",
"e 	c #F4F358",
"f 	c #FBFBB3",
"g 	c #FEFEDC",
"h 	c #FFFFE9",
"i 	c #FFFFEE",
"j 	c #FEFEEB",
"k 	c #F6F5B8",
"l 	c #C3C22D",
"m 	c #D3D22C",
"n 	c #EAE93A",
"o 	c #EFEE39",
"p 	c #F2F141",
"q 	c #F8F76F",
"r 	c #FCFCB0",
"s 	c #FEFECC",
"t 	c #FFFFD9",
"u 	c #FEFEE5",
"v 	c #FEFEE8",
"w 	c #F8F8B9",
"x 	c #CDCC3A",
"y 	c #CDCC29",
"z 	c #E0DF35",
"A 	c #EFED3C",
"B 	c #F3F143",
"C 	c #F4F347",
"D 	c #F6F55B",
"E 	c #FAF980",
"F 	c #FBFB94",
"G 	c #FBFBA8",
"H 	c #FBFBAE",
"I 	c #F2F175",
"J 	c #C8C62B",
"K 	c #B1AE20",
"L 	c #C9C727",
"M 	c #D7D52D",
"N 	c #EAE938",
"O 	c #F3F144",
"P 	c #F6F44F",
"Q 	c #F6F44D",
"R 	c #F6F653",
"S 	c #F7F659",
"T 	c #F6F552",
"U 	c #F3F34E",
"V 	c #E5E43C",
"W 	c #C3C123",
"X 	c #B4B220",
"Y 	c #C3C124",
"Z 	c #CBC927",
"` 	c #DFDD31",
" .	c #EAE837",
"..	c #F3F248",
"+.	c #F6F658",
"@.	c #F6F657",
"#.	c #F6F551",
"$.	c #F5F44C",
"%.	c #EFEE3F",
"&.	c #D7D629",
"*.	c #BBBA20",
"=.	c #B0AD20",
"-.	c #D0CF2C",
";.	c #DDDC36",
">.	c #E6E53E",
",.	c #EBEB4A",
"'.	c #EDEC4C",
").	c #EFEE4D",
"!.	c #F0EF4A",
"~.	c #DFDE38",
"{.	c #C3C223",
"].	c #CAC831",
"^.	c #D0CE38",
"/.	c #DAD942",
"(.	c #DFDF43",
"_.	c #DEDC43",
":.	c #D1D037",
"<.	c #C5C42D",
"[.	c #B6B422",
"}.	c #ACAB20",
"|.	c #C4C329",
"1.	c #CBCA2C",
"2.	c #CDCC2F",
"3.	c #CCCB2F",
"4.	c #B6B425",
"5.	c #A6A320",
"6.	c #B1B020",
"7.	c #A7A620",
"8.	c #A7A420",
"            . . . .             ",
"        + + @ # @ @ + +         ",
"      @ $ % & * = - ; @ @       ",
"    + > , ' ) ! ~ { ] ^ @ /     ",
"  / ; ( _ : < [ } | ! 1 2 @ /   ",
"  / 3 4 5 6 7 8 9 0 0 ! a $ +   ",
". @ b c d e f g h i } j k l + . ",
". ; m n o p q r s t u v w x + . ",
". $ y z A B C D E F G H I J + . ",
"K @ L M N O P Q R S T U V W + . ",
"  X Y Z `  ...+.@.#.$.%.&.*..   ",
"  =.@ W -.;.>.,.'.).!.~.{.+ X   ",
"    =.. $ ].^./.(._.:.<.[.=.    ",
"      }.K [.|.1.2.3.l 4.5.      ",
"        =.K 6.6.X K 7.8.        ",
"            . . . .             "};
