/* XPM */
static char * LED_green_on_xpm[] = {
"16 16 136 2",
"  	c None",
". 	c #2FB620",
"+ 	c #2FB920",
"@ 	c #30BA21",
"# 	c #32BB23",
"$ 	c #2FBA20",
"% 	c #31BC23",
"& 	c #42CB30",
"* 	c #63DA4E",
"= 	c #6CDF58",
"- 	c #54D342",
"; 	c #45CB33",
"> 	c #30BB22",
", 	c #34C125",
"' 	c #51D93C",
") 	c #9BF084",
"! 	c #D3FAC9",
"~ 	c #DFFBD8",
"{ 	c #D4FACA",
"] 	c #B0F39F",
"^ 	c #71E05B",
"/ 	c #41C82F",
"( 	c #2FB720",
"_ 	c #4AD835",
": 	c #71ED57",
"< 	c #BDFAAC",
"[ 	c #E7FDE0",
"} 	c #F4FFF1",
"| 	c #F9FFF8",
"1 	c #F8FEF5",
"2 	c #DFFBD7",
"3 	c #A6EF93",
"4 	c #45CA34",
"5 	c #38C927",
"6 	c #52E53A",
"7 	c #69F24E",
"8 	c #A6F990",
"9 	c #D9FDCF",
"0 	c #EFFFEA",
"a 	c #F6FFF3",
"b 	c #FBFFFA",
"c 	c #FAFFF9",
"d 	c #79DF64",
"e 	c #34BC24",
"f 	c #3DD22A",
"g 	c #57EB3D",
"h 	c #59F03F",
"i 	c #75F458",
"j 	c #C5FCB4",
"k 	c #E5FEDD",
"l 	c #F2FFEE",
"m 	c #FAFFF8",
"n 	c #F0FEEB",
"o 	c #C4F6B8",
"p 	c #3DC42D",
"q 	c #3ED42C",
"r 	c #54EA3B",
"s 	c #54EF3A",
"t 	c #5DF242",
"u 	c #8DF86F",
"v 	c #C1FCB0",
"w 	c #D9FECD",
"x 	c #E3FFD9",
"y 	c #ECFEE6",
"z 	c #EDFEE8",
"A 	c #C6F8B9",
"B 	c #4DCE3A",
"C 	c #3CCE2A",
"D 	c #4CE136",
"E 	c #57EF3C",
"F 	c #5DF343",
"G 	c #65F448",
"H 	c #78F65B",
"I 	c #9BFA80",
"J 	c #ACFB96",
"K 	c #BCFCA9",
"L 	c #C0FBB0",
"M 	c #8DF275",
"N 	c #3CC82B",
"O 	c #2EB120",
"P 	c #39C928",
"Q 	c #42D72E",
"R 	c #51EA39",
"S 	c #5FF344",
"T 	c #6CF64F",
"U 	c #69F64D",
"V 	c #74F754",
"W 	c #78F759",
"X 	c #71F653",
"Y 	c #6BF44E",
"Z 	c #54E53C",
"` 	c #32C323",
" .	c #2FB420",
"..	c #35C324",
"+.	c #39CB28",
"@.	c #46DF31",
"#.	c #4EEA37",
"$.	c #65F34A",
"%.	c #76F759",
"&.	c #76F658",
"*.	c #6FF651",
"=.	c #68F54C",
"-.	c #5CEF41",
";.	c #3ED72A",
">.	c #2FBC20",
",.	c #2EB020",
"'.	c #33C323",
").	c #3FD02D",
"!.	c #4BDD36",
"~.	c #57E63F",
"{.	c #64EC4B",
"].	c #65ED4C",
"^.	c #69EF4E",
"/.	c #67F04B",
"(.	c #4DDF38",
"_.	c #33C423",
":.	c #33BC23",
"<.	c #43CA31",
"[.	c #4BD038",
"}.	c #57DB43",
"|.	c #5BE044",
"1.	c #57DE43",
"2.	c #4AD137",
"3.	c #3EC62D",
"4.	c #31B723",
"5.	c #2EAD20",
"6.	c #39C529",
"7.	c #3FCC2D",
"8.	c #41CE2F",
"9.	c #42CD2F",
"0.	c #34B726",
"a.	c #2DA620",
"b.	c #2EB220",
"c.	c #2FB120",
"d.	c #2DA820",
"e.	c #2DA720",
"            . . . .             ",
"        + + @ # $ $ + +         ",
"      $ % & * = - ; > $ $       ",
"    + , ' ) ! ~ { ] ^ / $ (     ",
"  ( > _ : < [ } | 1 2 3 4 $ (   ",
"  ( 5 6 7 8 9 0 a b c ~ d e +   ",
". $ f g h i j k 0 l m n o p + . ",
". > q r s t u v w x y z A B + . ",
". % C D E F G H I J K L M N + . ",
"O @ P Q R S T U V W X Y Z ` + . ",
"   ...+.@.#.$.%.&.*.=.-.;.>..   ",
"  ,.$ '.).!.~.{.].^./.(._.+  .  ",
"    ,.. :.<.[.}.|.1.2.3.4.,.    ",
"      5.O 4.6.7.8.9.p 0.a.      ",
"        ,.O b.b. .c.d.e.        ",
"            . . . .             "};
