/* XPM */
static char * LED_green_off_xpm[] = {
"16 16 132 2",
"  	c None",
". 	c #307400",
"+ 	c #307500",
"@ 	c #33750E",
"# 	c #35761A",
"$ 	c #327500",
"% 	c #347616",
"& 	c #437C33",
"* 	c #56824C",
"= 	c #5A8451",
"- 	c #4F7F43",
"; 	c #467C36",
"> 	c #337613",
", 	c #37781F",
"' 	c #4D823F",
") 	c #6B8F63",
"! 	c #7F9B7B",
"~ 	c #859E81",
"{ 	c #72926C",
"] 	c #5C8552",
"^ 	c #427A32",
"/ 	c #498138",
"( 	c #5C8D50",
"_ 	c #779A70",
": 	c #89A385",
"< 	c #93A990",
"[ 	c #99AA97",
"} 	c #97A795",
"| 	c #849D80",
"1 	c #6E8E68",
"2 	c #467B37",
"3 	c #3B7B23",
"4 	c #4E883D",
"5 	c #59914C",
"6 	c #6E9967",
"7 	c #82A27D",
"8 	c #8EAA8B",
"9 	c #96AD92",
"0 	c #9DAD9A",
"a 	c #9CAA9A",
"b 	c #5F8557",
"c 	c #37761C",
"d 	c #407F29",
"e 	c #508C40",
"f 	c #528F42",
"g 	c #5E9351",
"h 	c #799E73",
"i 	c #88A883",
"j 	c #8FAD8B",
"k 	c #91AE8E",
"l 	c #9BAC98",
"m 	c #8FA68C",
"n 	c #799575",
"o 	c #40792E",
"p 	c #417F2C",
"q 	c #4F8B3E",
"r 	c #4F8F3D",
"s 	c #549143",
"t 	c #66985B",
"u 	c #78A072",
"v 	c #82A67C",
"w 	c #87AA82",
"x 	c #8CA888",
"y 	c #8DA689",
"z 	c #7A9875",
"A 	c #4B7D3D",
"B 	c #3F7D29",
"C 	c #4A8539",
"D 	c #508E3F",
"E 	c #549244",
"F 	c #579348",
"G 	c #5F9652",
"H 	c #6B9B61",
"I 	c #709E69",
"J 	c #769E6F",
"K 	c #779D72",
"L 	c #66915E",
"M 	c #3F7A2B",
"N 	c #2F7200",
"O 	c #3C7B25",
"P 	c #43802F",
"Q 	c #4D8B3C",
"R 	c #549245",
"S 	c #5A954C",
"T 	c #59954B",
"U 	c #5D964F",
"V 	c #5F9752",
"W 	c #5C964E",
"X 	c #5A934C",
"Y 	c #4F883F",
"Z 	c #357916",
"` 	c #307300",
" .	c #38791C",
"..	c #3C7C25",
"+.	c #468434",
"@.	c #4C8B3A",
"#.	c #579249",
"$.	c #5E9652",
"%.	c #5E9651",
"&.	c #5B964D",
"*.	c #58944A",
"=.	c #538F42",
"-.	c #418129",
";.	c #327600",
">.	c #36791A",
",.	c #427E2E",
"'.	c #4A8339",
").	c #508942",
"!.	c #578C4A",
"~.	c #578D4A",
"{.	c #598F4C",
"].	c #58904A",
"^.	c #4B853B",
"/.	c #367916",
"(.	c #36761A",
"_.	c #447B34",
":.	c #4A7E3B",
"<.	c #508244",
"[.	c #528545",
"}.	c #508444",
"|.	c #497E3A",
"1.	c #417A2E",
"2.	c #347416",
"3.	c #2F7100",
"4.	c #3C7928",
"5.	c #427C2E",
"6.	c #427D30",
"7.	c #437C32",
"8.	c #377421",
"9.	c #2E6E00",
"0.	c #307200",
"a.	c #2E6F00",
"            . . . .             ",
"        + + @ # $ $ + +         ",
"      + % & * = - ; > + +       ",
"    + , ' ) ! ~ ! { ] ^ $ .     ",
"  . > / ( _ : < [ } | 1 2 + .   ",
"  . 3 4 5 6 7 8 9 0 a ~ b c +   ",
". $ d e f g h i j k l m n o + . ",
". > p q r s t u v w x y z A + . ",
". % B C D E F G H I J K L M + . ",
"N @ O P Q R S T U V W X Y Z + . ",
"  `  ...+.@.#.$.%.&.*.=.-.;..   ",
"  N $ >.,.'.).!.~.{.].^./.+ `   ",
"    N . (._.:.<.[.}.|.1.2.N     ",
"      3.N 2.4.5.6.7.o 8.9.      ",
"        N N N N ` 0.a.a.        ",
"            . . . .             "};
